<svg xmlns="http://www.w3.org/2000/svg" xmlns:xlink="http://www.w3.org/1999/xlink" width="500" zoomAndPan="magnify" viewBox="0 0 375 187.499995" height="250" preserveAspectRatio="xMidYMid meet" version="1.0"><defs><clipPath id="30a922f093"><path d="M 19.199219 70 L 94 70 L 94 144.75 L 19.199219 144.75 Z M 19.199219 70 " clip-rule="nonzero"/></clipPath></defs><path fill="#ed0007" d="M 162.570312 106.097656 C 163.582031 105.707031 164.511719 105.175781 165.359375 104.503906 C 166.207031 103.828125 166.933594 103.042969 167.542969 102.148438 C 168.148438 101.253906 168.609375 100.285156 168.921875 99.25 C 169.234375 98.214844 169.382812 97.15625 169.371094 96.074219 C 169.371094 87.050781 162.957031 82.578125 154.152344 82.578125 L 131.054688 82.578125 L 131.054688 131.640625 L 156.160156 131.640625 C 163.886719 131.640625 171.457031 126.242188 171.457031 117.988281 C 171.457031 108.179688 162.570312 106.191406 162.570312 106.097656 Z M 143.105469 92.757812 L 152.066406 92.757812 C 152.351562 92.738281 152.640625 92.75 152.921875 92.789062 C 153.207031 92.828125 153.488281 92.894531 153.757812 92.988281 C 154.03125 93.082031 154.289062 93.199219 154.539062 93.34375 C 154.789062 93.488281 155.019531 93.65625 155.234375 93.847656 C 155.449219 94.035156 155.644531 94.246094 155.816406 94.472656 C 155.992188 94.703125 156.140625 94.945312 156.269531 95.203125 C 156.394531 95.460938 156.492188 95.730469 156.566406 96.007812 C 156.640625 96.285156 156.683594 96.566406 156.699219 96.851562 C 156.699219 97.027344 156.699219 97.203125 156.699219 97.386719 C 156.695312 97.683594 156.660156 97.980469 156.597656 98.269531 C 156.53125 98.5625 156.441406 98.84375 156.320312 99.117188 C 156.203125 99.394531 156.054688 99.652344 155.886719 99.898438 C 155.714844 100.144531 155.523438 100.371094 155.308594 100.578125 C 155.09375 100.785156 154.859375 100.96875 154.609375 101.132812 C 154.355469 101.292969 154.09375 101.429688 153.816406 101.542969 C 153.535156 101.652344 153.25 101.734375 152.957031 101.789062 C 152.660156 101.84375 152.367188 101.867188 152.066406 101.863281 L 143.027344 101.863281 Z M 152.144531 121.367188 L 143.183594 121.367188 L 143.183594 111.726562 L 151.910156 111.726562 C 156.316406 111.726562 158.402344 113.65625 158.402344 116.507812 C 158.402344 120.070312 155.773438 121.367188 152.144531 121.367188 Z M 152.144531 121.367188 " fill-opacity="1" fill-rule="evenodd"/><path fill="#ed0007" d="M 198.03125 81.34375 C 183.816406 81.34375 175.472656 92.679688 175.472656 107.023438 C 175.472656 121.367188 183.816406 132.703125 198.03125 132.703125 C 212.246094 132.703125 220.589844 121.445312 220.589844 107.023438 C 220.589844 92.605469 212.324219 81.34375 198.03125 81.34375 Z M 198.03125 120.980469 C 191.078125 120.980469 187.601562 114.734375 187.601562 107.023438 C 187.601562 99.3125 191.078125 93.144531 198.03125 93.144531 C 204.984375 93.144531 208.535156 99.390625 208.535156 107.023438 C 208.535156 114.8125 204.984375 120.980469 198.03125 120.980469 Z M 198.03125 120.980469 " fill-opacity="1" fill-rule="evenodd"/><path fill="#ed0007" d="M 246.777344 101.855469 L 245.078125 101.472656 C 240.90625 100.625 237.582031 99.542969 237.582031 96.535156 C 237.582031 93.296875 240.75 91.988281 243.53125 91.988281 C 245.449219 92.015625 247.28125 92.425781 249.027344 93.214844 C 250.773438 94.007812 252.289062 95.113281 253.574219 96.535156 L 261.222656 88.980469 C 257.746094 85.046875 252.105469 81.269531 243.300781 81.269531 C 232.949219 81.269531 225.070312 87.050781 225.070312 96.691406 C 225.070312 105.480469 231.402344 109.800781 239.128906 111.417969 L 240.828125 111.804688 C 247.238281 113.117188 249.632812 114.117188 249.632812 117.203125 C 249.632812 120.132812 247.007812 122.0625 242.992188 122.0625 C 238.203125 122.0625 233.875 119.980469 230.554688 115.738281 L 222.75 123.449219 C 227.078125 128.617188 232.5625 132.625 243.144531 132.625 C 252.339844 132.625 262.148438 127.382812 262.148438 116.664062 C 262.304688 105.480469 253.804688 103.324219 246.777344 101.855469 Z M 246.777344 101.855469 " fill-opacity="1" fill-rule="evenodd"/><path fill="#ed0007" d="M 289.652344 120.980469 C 284.242188 120.980469 278.605469 116.507812 278.605469 106.714844 C 278.605469 98 283.855469 93.144531 289.34375 93.144531 C 293.667969 93.144531 296.21875 95.148438 298.226562 98.617188 L 308.113281 92.0625 C 303.171875 84.582031 297.300781 81.421875 289.1875 81.421875 C 274.355469 81.421875 266.320312 92.914062 266.320312 106.792969 C 266.320312 121.367188 275.203125 132.78125 289.03125 132.78125 C 298.765625 132.78125 303.402344 129.386719 308.421875 122.136719 L 298.457031 115.445312 C 296.449219 118.667969 294.285156 120.980469 289.652344 120.980469 Z M 289.652344 120.980469 " fill-opacity="1" fill-rule="evenodd"/><path fill="#ed0007" d="M 341.101562 82.578125 L 341.101562 100.625 L 326.191406 100.625 L 326.191406 82.578125 L 313.289062 82.578125 L 313.289062 131.625 L 326.191406 131.625 L 326.191406 112.269531 L 341.101562 112.269531 L 341.101562 131.625 L 354 131.625 L 354 82.578125 Z M 341.101562 82.578125 " fill-opacity="1" fill-rule="evenodd"/><g clip-path="url(#30a922f093)"><path fill="#000000" d="M 56.738281 70.085938 C 55.519531 70.085938 54.300781 70.144531 53.089844 70.265625 C 51.875 70.386719 50.667969 70.5625 49.472656 70.800781 C 48.277344 71.039062 47.097656 71.332031 45.929688 71.6875 C 44.761719 72.039062 43.613281 72.449219 42.488281 72.914062 C 41.363281 73.382812 40.261719 73.902344 39.183594 74.476562 C 38.109375 75.050781 37.066406 75.675781 36.050781 76.351562 C 35.035156 77.027344 34.058594 77.75 33.117188 78.523438 C 32.171875 79.296875 31.269531 80.113281 30.410156 80.972656 C 29.546875 81.832031 28.726562 82.734375 27.953125 83.675781 C 27.179688 84.617188 26.457031 85.59375 25.777344 86.605469 C 25.101562 87.617188 24.472656 88.660156 23.898438 89.734375 C 23.324219 90.808594 22.804688 91.90625 22.335938 93.03125 C 21.871094 94.15625 21.460938 95.300781 21.105469 96.464844 C 20.75 97.628906 20.457031 98.808594 20.21875 100.003906 C 19.980469 101.199219 19.800781 102.402344 19.679688 103.613281 C 19.5625 104.824219 19.503906 106.039062 19.503906 107.253906 C 19.503906 108.472656 19.5625 109.6875 19.679688 110.898438 C 19.800781 112.109375 19.980469 113.3125 20.21875 114.507812 C 20.457031 115.699219 20.75 116.878906 21.105469 118.046875 C 21.460938 119.210938 21.871094 120.355469 22.335938 121.480469 C 22.804688 122.605469 23.324219 123.703125 23.898438 124.777344 C 24.472656 125.851562 25.101562 126.894531 25.777344 127.90625 C 26.457031 128.917969 27.179688 129.894531 27.953125 130.835938 C 28.726562 131.777344 29.546875 132.675781 30.410156 133.539062 C 31.269531 134.398438 32.171875 135.214844 33.117188 135.988281 C 34.058594 136.757812 35.035156 137.484375 36.050781 138.160156 C 37.066406 138.835938 38.109375 139.460938 39.183594 140.035156 C 40.261719 140.609375 41.363281 141.128906 42.488281 141.59375 C 43.613281 142.0625 44.761719 142.46875 45.929688 142.824219 C 47.097656 143.175781 48.277344 143.472656 49.472656 143.710938 C 50.667969 143.949219 51.875 144.125 53.089844 144.246094 C 54.300781 144.363281 55.519531 144.425781 56.738281 144.425781 C 57.957031 144.425781 59.171875 144.363281 60.386719 144.246094 C 61.601562 144.125 62.804688 143.949219 64 143.710938 C 65.199219 143.472656 66.378906 143.175781 67.546875 142.824219 C 68.714844 142.46875 69.859375 142.0625 70.988281 141.59375 C 72.113281 141.128906 73.214844 140.609375 74.289062 140.035156 C 75.367188 139.460938 76.410156 138.835938 77.425781 138.160156 C 78.4375 137.484375 79.417969 136.757812 80.359375 135.988281 C 81.300781 135.214844 82.203125 134.398438 83.066406 133.539062 C 83.929688 132.675781 84.746094 131.777344 85.519531 130.835938 C 86.292969 129.894531 87.019531 128.917969 87.699219 127.90625 C 88.375 126.894531 89 125.851562 89.574219 124.777344 C 90.152344 123.703125 90.671875 122.605469 91.136719 121.480469 C 91.605469 120.355469 92.015625 119.210938 92.371094 118.046875 C 92.722656 116.878906 93.019531 115.699219 93.257812 114.507812 C 93.496094 113.3125 93.675781 112.109375 93.792969 110.898438 C 93.914062 109.6875 93.972656 108.472656 93.972656 107.253906 C 93.972656 106.039062 93.914062 104.824219 93.792969 103.613281 C 93.675781 102.402344 93.496094 101.199219 93.257812 100.003906 C 93.019531 98.808594 92.722656 97.628906 92.371094 96.464844 C 92.015625 95.300781 91.605469 94.15625 91.136719 93.03125 C 90.671875 91.90625 90.152344 90.808594 89.574219 89.734375 C 89 88.660156 88.375 87.617188 87.699219 86.605469 C 87.019531 85.59375 86.292969 84.617188 85.519531 83.675781 C 84.746094 82.734375 83.929688 81.832031 83.066406 80.972656 C 82.203125 80.113281 81.300781 79.296875 80.359375 78.523438 C 79.417969 77.75 78.4375 77.027344 77.425781 76.351562 C 76.410156 75.675781 75.367188 75.050781 74.289062 74.476562 C 73.214844 73.902344 72.113281 73.382812 70.988281 72.914062 C 69.859375 72.449219 68.714844 72.039062 67.546875 71.6875 C 66.378906 71.332031 65.199219 71.039062 64 70.800781 C 62.804688 70.5625 61.601562 70.386719 60.386719 70.265625 C 59.171875 70.144531 57.957031 70.085938 56.738281 70.085938 Z M 56.738281 140.953125 C 55.632812 140.953125 54.527344 140.898438 53.429688 140.792969 C 52.328125 140.683594 51.234375 140.523438 50.152344 140.308594 C 49.066406 140.089844 47.996094 139.824219 46.9375 139.503906 C 45.878906 139.183594 44.839844 138.8125 43.820312 138.390625 C 42.796875 137.964844 41.800781 137.496094 40.824219 136.976562 C 39.847656 136.453125 38.902344 135.886719 37.980469 135.273438 C 37.0625 134.660156 36.175781 134.003906 35.320312 133.304688 C 34.464844 132.605469 33.648438 131.863281 32.867188 131.085938 C 32.085938 130.304688 31.34375 129.488281 30.640625 128.632812 C 29.941406 127.78125 29.28125 126.894531 28.667969 125.976562 C 28.054688 125.058594 27.484375 124.113281 26.964844 123.140625 C 26.445312 122.167969 25.972656 121.171875 25.546875 120.152344 C 25.125 119.132812 24.753906 118.09375 24.433594 117.039062 C 24.113281 115.980469 23.84375 114.914062 23.628906 113.828125 C 23.410156 112.746094 23.25 111.65625 23.140625 110.558594 C 23.03125 109.460938 22.980469 108.359375 22.980469 107.253906 C 22.980469 106.152344 23.03125 105.050781 23.140625 103.953125 C 23.25 102.855469 23.410156 101.761719 23.628906 100.679688 C 23.84375 99.597656 24.113281 98.53125 24.433594 97.472656 C 24.753906 96.417969 25.125 95.378906 25.546875 94.359375 C 25.972656 93.339844 26.445312 92.34375 26.964844 91.371094 C 27.484375 90.398438 28.054688 89.449219 28.667969 88.535156 C 29.28125 87.617188 29.941406 86.730469 30.640625 85.878906 C 31.34375 85.023438 32.085938 84.207031 32.867188 83.425781 C 33.648438 82.644531 34.464844 81.90625 35.320312 81.207031 C 36.175781 80.503906 37.0625 79.847656 37.980469 79.234375 C 38.902344 78.621094 39.847656 78.054688 40.824219 77.535156 C 41.796875 77.015625 42.796875 76.542969 43.820312 76.121094 C 44.839844 75.699219 45.878906 75.328125 46.9375 75.007812 C 47.996094 74.6875 49.066406 74.417969 50.152344 74.203125 C 51.234375 73.988281 52.328125 73.828125 53.429688 73.71875 C 54.527344 73.609375 55.632812 73.554688 56.738281 73.554688 C 57.84375 73.554688 58.945312 73.609375 60.046875 73.71875 C 61.148438 73.828125 62.238281 73.988281 63.324219 74.203125 C 64.40625 74.417969 65.480469 74.6875 66.539062 75.007812 C 67.59375 75.328125 68.636719 75.699219 69.65625 76.121094 C 70.679688 76.542969 71.675781 77.015625 72.652344 77.535156 C 73.625 78.054688 74.574219 78.621094 75.492188 79.234375 C 76.414062 79.847656 77.300781 80.503906 78.152344 81.207031 C 79.007812 81.90625 79.828125 82.644531 80.609375 83.425781 C 81.390625 84.207031 82.132812 85.023438 82.832031 85.878906 C 83.535156 86.730469 84.191406 87.617188 84.808594 88.535156 C 85.421875 89.449219 85.988281 90.398438 86.511719 91.371094 C 87.03125 92.34375 87.503906 93.339844 87.925781 94.359375 C 88.351562 95.378906 88.722656 96.417969 89.042969 97.472656 C 89.363281 98.53125 89.632812 99.597656 89.847656 100.679688 C 90.0625 101.761719 90.226562 102.855469 90.332031 103.953125 C 90.441406 105.050781 90.496094 106.152344 90.496094 107.253906 C 90.496094 108.359375 90.441406 109.460938 90.332031 110.558594 C 90.226562 111.65625 90.0625 112.746094 89.847656 113.828125 C 89.628906 114.910156 89.363281 115.980469 89.042969 117.035156 C 88.71875 118.09375 88.347656 119.128906 87.925781 120.148438 C 87.5 121.167969 87.03125 122.167969 86.507812 123.140625 C 85.988281 124.113281 85.417969 125.058594 84.804688 125.976562 C 84.191406 126.894531 83.53125 127.777344 82.832031 128.632812 C 82.128906 129.484375 81.386719 130.300781 80.605469 131.082031 C 79.824219 131.863281 79.007812 132.601562 78.152344 133.300781 C 77.296875 134.003906 76.410156 134.660156 75.492188 135.273438 C 74.570312 135.886719 73.625 136.453125 72.648438 136.972656 C 71.675781 137.492188 70.675781 137.964844 69.65625 138.386719 C 68.632812 138.808594 67.59375 139.179688 66.535156 139.5 C 65.480469 139.820312 64.40625 140.089844 63.324219 140.304688 C 62.238281 140.519531 61.148438 140.683594 60.046875 140.792969 C 58.945312 140.898438 57.84375 140.953125 56.738281 140.953125 Z M 56.738281 140.953125 " fill-opacity="1" fill-rule="nonzero"/></g><path fill="#000000" d="M 72.109375 84.042969 L 69.5625 84.042969 L 69.5625 96.769531 L 43.992188 96.769531 L 43.992188 84.042969 L 41.363281 84.042969 C 40.886719 84.359375 40.417969 84.6875 39.960938 85.03125 C 39.5 85.375 39.054688 85.734375 38.617188 86.105469 C 38.183594 86.476562 37.757812 86.863281 37.34375 87.261719 C 36.933594 87.65625 36.535156 88.066406 36.148438 88.492188 C 35.757812 88.914062 35.386719 89.347656 35.027344 89.792969 C 34.667969 90.238281 34.320312 90.695312 33.988281 91.160156 C 33.65625 91.628906 33.339844 92.105469 33.035156 92.589844 C 32.734375 93.074219 32.449219 93.570312 32.175781 94.074219 C 31.902344 94.578125 31.648438 95.089844 31.40625 95.609375 C 31.167969 96.128906 30.945312 96.65625 30.738281 97.191406 C 30.527344 97.722656 30.339844 98.261719 30.164062 98.808594 C 29.988281 99.355469 29.832031 99.902344 29.691406 100.460938 C 29.550781 101.015625 29.429688 101.574219 29.324219 102.136719 C 29.21875 102.699219 29.128906 103.261719 29.058594 103.832031 C 28.988281 104.398438 28.9375 104.96875 28.902344 105.539062 C 28.867188 106.109375 28.847656 106.683594 28.847656 107.253906 C 28.847656 107.828125 28.867188 108.398438 28.902344 108.972656 C 28.9375 109.542969 28.988281 110.113281 29.058594 110.679688 C 29.128906 111.246094 29.21875 111.8125 29.324219 112.375 C 29.429688 112.9375 29.550781 113.496094 29.691406 114.050781 C 29.832031 114.605469 29.988281 115.15625 30.164062 115.703125 C 30.339844 116.246094 30.527344 116.785156 30.738281 117.320312 C 30.945312 117.855469 31.167969 118.378906 31.40625 118.898438 C 31.648438 119.417969 31.902344 119.933594 32.175781 120.4375 C 32.449219 120.941406 32.734375 121.433594 33.035156 121.921875 C 33.339844 122.40625 33.65625 122.882812 33.988281 123.351562 C 34.320312 123.816406 34.667969 124.273438 35.027344 124.71875 C 35.386719 125.164062 35.757812 125.597656 36.148438 126.019531 C 36.535156 126.441406 36.933594 126.851562 37.34375 127.25 C 37.757812 127.648438 38.183594 128.03125 38.617188 128.40625 C 39.054688 128.777344 39.5 129.132812 39.960938 129.476562 C 40.417969 129.820312 40.886719 130.152344 41.363281 130.464844 L 43.992188 130.464844 L 43.992188 117.757812 L 69.5625 117.757812 L 69.5625 130.480469 L 72.109375 130.480469 C 72.589844 130.167969 73.058594 129.835938 73.515625 129.492188 C 73.976562 129.148438 74.421875 128.792969 74.859375 128.421875 C 75.292969 128.050781 75.71875 127.664062 76.132812 127.265625 C 76.542969 126.871094 76.945312 126.460938 77.332031 126.035156 C 77.71875 125.613281 78.089844 125.179688 78.453125 124.734375 C 78.8125 124.289062 79.160156 123.835938 79.492188 123.367188 C 79.824219 122.902344 80.140625 122.425781 80.441406 121.9375 C 80.746094 121.453125 81.03125 120.957031 81.304688 120.453125 C 81.574219 119.949219 81.832031 119.4375 82.070312 118.917969 C 82.3125 118.398438 82.535156 117.871094 82.742188 117.335938 C 82.953125 116.804688 83.140625 116.265625 83.316406 115.71875 C 83.492188 115.171875 83.648438 114.625 83.789062 114.066406 C 83.929688 113.511719 84.050781 112.953125 84.15625 112.390625 C 84.261719 111.828125 84.351562 111.261719 84.421875 110.695312 C 84.492188 110.128906 84.546875 109.558594 84.582031 108.988281 C 84.617188 108.414062 84.632812 107.84375 84.632812 107.269531 C 84.632812 106.699219 84.617188 106.125 84.582031 105.554688 C 84.546875 104.984375 84.492188 104.414062 84.421875 103.847656 C 84.351562 103.277344 84.261719 102.710938 84.15625 102.148438 C 84.050781 101.585938 83.929688 101.027344 83.789062 100.472656 C 83.648438 99.917969 83.492188 99.367188 83.316406 98.824219 C 83.140625 98.277344 82.953125 97.738281 82.742188 97.203125 C 82.535156 96.671875 82.3125 96.144531 82.070312 95.625 C 81.832031 95.105469 81.574219 94.59375 81.304688 94.089844 C 81.03125 93.585938 80.746094 93.089844 80.441406 92.605469 C 80.140625 92.117188 79.824219 91.640625 79.492188 91.175781 C 79.160156 90.707031 78.8125 90.25 78.453125 89.804688 C 78.089844 89.359375 77.71875 88.925781 77.332031 88.503906 C 76.945312 88.082031 76.542969 87.671875 76.132812 87.273438 C 75.71875 86.878906 75.292969 86.492188 74.859375 86.121094 C 74.421875 85.75 73.976562 85.390625 73.515625 85.046875 C 73.058594 84.703125 72.589844 84.375 72.109375 84.058594 Z M 40.4375 125.46875 C 39.839844 124.941406 39.269531 124.382812 38.726562 123.796875 C 38.183594 123.210938 37.671875 122.597656 37.191406 121.960938 C 36.707031 121.328125 36.257812 120.667969 35.839844 119.988281 C 35.421875 119.308594 35.039062 118.609375 34.691406 117.890625 C 34.339844 117.171875 34.027344 116.441406 33.75 115.691406 C 33.476562 114.941406 33.234375 114.183594 33.035156 113.410156 C 32.832031 112.636719 32.667969 111.859375 32.542969 111.070312 C 32.417969 110.28125 32.332031 109.488281 32.285156 108.691406 C 32.238281 107.898438 32.230469 107.101562 32.261719 106.300781 C 32.292969 105.503906 32.363281 104.710938 32.472656 103.921875 C 32.582031 103.132812 32.730469 102.347656 32.917969 101.570312 C 33.105469 100.796875 33.328125 100.03125 33.589844 99.277344 C 33.851562 98.523438 34.152344 97.785156 34.484375 97.058594 C 34.820312 96.335938 35.1875 95.628906 35.59375 94.941406 C 35.996094 94.253906 36.433594 93.585938 36.90625 92.941406 C 37.375 92.292969 37.875 91.671875 38.40625 91.078125 C 39.042969 90.363281 39.722656 89.691406 40.4375 89.054688 Z M 69.5625 114.210938 L 43.992188 114.210938 L 43.992188 100.238281 L 69.5625 100.238281 Z M 73.039062 125.394531 L 73.039062 89.054688 C 73.632812 89.589844 74.203125 90.152344 74.742188 90.742188 C 75.285156 91.332031 75.792969 91.949219 76.273438 92.589844 C 76.753906 93.226562 77.203125 93.890625 77.617188 94.574219 C 78.03125 95.257812 78.410156 95.960938 78.757812 96.683594 C 79.101562 97.402344 79.414062 98.140625 79.6875 98.890625 C 79.960938 99.644531 80.195312 100.40625 80.394531 101.183594 C 80.589844 101.957031 80.75 102.738281 80.871094 103.53125 C 80.992188 104.320312 81.074219 105.113281 81.117188 105.914062 C 81.160156 106.710938 81.164062 107.511719 81.128906 108.308594 C 81.089844 109.109375 81.015625 109.902344 80.902344 110.695312 C 80.789062 111.488281 80.636719 112.269531 80.445312 113.046875 C 80.253906 113.824219 80.023438 114.589844 79.757812 115.34375 C 79.492188 116.097656 79.1875 116.835938 78.847656 117.558594 C 78.507812 118.285156 78.132812 118.992188 77.726562 119.679688 C 77.316406 120.367188 76.875 121.03125 76.398438 121.675781 C 75.925781 122.320312 75.417969 122.941406 74.882812 123.535156 C 74.300781 124.179688 73.683594 124.792969 73.039062 125.378906 Z M 73.039062 125.394531 " fill-opacity="1" fill-rule="nonzero"/></svg>