<svg xmlns="http://www.w3.org/2000/svg" xmlns:xlink="http://www.w3.org/1999/xlink" width="500" zoomAndPan="magnify" viewBox="0 0 375 187.499995" height="250" preserveAspectRatio="xMidYMid meet" version="1.0"><path fill="#febd18" d="M 346.050781 142.128906 L 346.054688 44.761719 L 28.949219 44.761719 L 28.949219 142.128906 L 346.050781 142.128906 " fill-opacity="1" fill-rule="nonzero"/><path fill="#000000" d="M 42.601562 58.402344 L 332.417969 58.402344 L 332.417969 63.890625 L 42.601562 63.890625 Z M 42.601562 58.402344 " fill-opacity="1" fill-rule="nonzero"/><path fill="#000000" d="M 42.601562 122.933594 L 332.40625 122.933594 L 332.40625 128.421875 L 42.601562 128.421875 Z M 42.601562 122.933594 " fill-opacity="1" fill-rule="nonzero"/><path fill="#000000" d="M 288.449219 66.644531 L 332.417969 66.644531 L 332.417969 81.753906 L 320.5 81.753906 L 320.5 120.070312 L 300.320312 120.070312 L 300.320312 81.753906 L 288.449219 81.753906 L 288.449219 66.644531 " fill-opacity="1" fill-rule="nonzero"/><path fill="#000000" d="M 258.210938 66.644531 L 258.210938 120.070312 L 294.851562 120.070312 L 294.851562 104.144531 L 278.359375 104.144531 L 278.359375 66.644531 L 258.210938 66.644531 " fill-opacity="1" fill-rule="nonzero"/><path fill="#000000" d="M 216.949219 66.636719 L 239.085938 66.636719 L 256.054688 120.070312 L 236.339844 120.070312 L 234.320312 111.9375 L 221.957031 111.9375 L 220.121094 120.070312 L 199.539062 120.070312 Z M 224.707031 100.050781 L 231.574219 100.050781 L 228.21875 84.492188 L 224.707031 100.050781 " fill-opacity="1" fill-rule="nonzero"/><path fill="#000000" d="M 206.328125 66.636719 L 186.632812 66.636719 L 181.140625 92.722656 L 175.179688 66.636719 L 157.773438 66.636719 L 152.15625 92.722656 L 146.78125 66.636719 L 127.113281 66.636719 L 141.816406 120.070312 L 160.074219 120.070312 L 166.214844 93.996094 L 172.515625 120.070312 L 191.214844 120.070312 L 206.328125 66.632812 " fill-opacity="1" fill-rule="nonzero"/><path fill="#000000" d="M 98.121094 78.078125 L 127.457031 78.078125 L 127.457031 89.074219 L 113.257812 89.074219 L 113.257812 93.636719 L 125.621094 93.636719 L 125.621094 104.632812 L 113.257812 104.632812 L 113.257812 109.191406 L 127.457031 109.191406 L 127.457031 120.070312 L 98.121094 120.070312 L 98.121094 78.078125 " fill-opacity="1" fill-rule="nonzero"/><path fill="#000000" d="M 42.613281 120.070312 L 42.613281 66.636719 L 67.664062 66.636719 C 82.460938 66.636719 94.222656 74.683594 94.222656 93.460938 C 94.222656 111.734375 82.835938 120.070312 67.570312 120.070312 Z M 63.292969 104.066406 C 69.640625 104.066406 73.832031 101.40625 73.832031 93.285156 C 73.832031 84.371094 69.675781 81.992188 63.335938 81.992188 L 61.714844 81.992188 L 61.714844 104.066406 L 63.292969 104.066406 " fill-opacity="1" fill-rule="nonzero"/><path fill="#000000" d="M 323.226562 115.617188 C 323.226562 113.105469 325.265625 111.253906 327.675781 111.253906 C 330.066406 111.253906 332.105469 113.105469 332.105469 115.617188 C 332.105469 118.15625 330.066406 120.007812 327.675781 120.007812 C 325.265625 120.007812 323.226562 118.15625 323.226562 115.617188 Z M 327.675781 119.28125 C 329.660156 119.28125 331.222656 117.726562 331.222656 115.617188 C 331.222656 113.546875 329.660156 111.984375 327.675781 111.984375 C 325.675781 111.984375 324.109375 113.546875 324.109375 115.617188 C 324.109375 117.726562 325.675781 119.28125 327.675781 119.28125 Z M 326.824219 116.191406 L 327.539062 116.191406 L 328.496094 117.800781 L 329.585938 117.800781 L 328.464844 116.121094 C 329.222656 116.03125 329.738281 115.5625 329.738281 114.644531 C 329.738281 113.871094 329.132812 113.300781 327.917969 113.300781 L 325.984375 113.300781 L 325.984375 117.800781 L 326.824219 117.800781 Z M 326.824219 115.433594 L 326.824219 113.988281 L 327.800781 113.988281 C 328.34375 113.988281 328.957031 114.023438 328.957031 114.6875 C 328.957031 115.445312 328.460938 115.433594 327.796875 115.433594 L 326.824219 115.433594 " fill-opacity="1" fill-rule="nonzero"/></svg>