<svg xmlns="http://www.w3.org/2000/svg" xmlns:xlink="http://www.w3.org/1999/xlink" width="500" zoomAndPan="magnify" viewBox="0 0 375 187.499995" height="250" preserveAspectRatio="xMidYMid meet" version="1.0"><defs><clipPath id="9dcd93eff8"><path d="M 24.773438 49 L 85 49 L 85 134 L 24.773438 134 Z M 24.773438 49 " clip-rule="nonzero"/></clipPath></defs><path fill="#4a1e5a" d="M 279.398438 54.644531 C 279.398438 43.675781 263.230469 43.820312 263.230469 54.644531 C 263.230469 65.46875 279.398438 65.609375 279.398438 54.644531 Z M 279.398438 54.644531 " fill-opacity="1" fill-rule="nonzero"/><path fill="#4a1e5a" d="M 337.726562 55.445312 L 320.003906 55.445312 L 320.003906 108.03125 C 320.003906 128.085938 332.242188 132.421875 349.238281 132.421875 L 349.238281 111.421875 C 344.671875 111.421875 337.730469 112.835938 337.730469 106.101562 L 337.730469 86.421875 L 349.238281 86.421875 L 349.238281 71.96875 L 337.730469 71.96875 L 337.730469 55.445312 Z M 337.726562 55.445312 " fill-opacity="1" fill-rule="nonzero"/><path fill="#4a1e5a" d="M 203.898438 115.140625 L 203.898438 132.421875 C 213.265625 132.421875 226.097656 133.832031 235.460938 131.617188 C 249.070312 128.558594 253.136719 113.117188 242.902344 103.140625 C 240.757812 101.066406 224.867188 92.074219 227.925781 88.308594 C 229.019531 86.945312 243.90625 88.023438 246.007812 88.023438 L 246.007812 71.96875 L 223.902344 71.96875 C 213.902344 71.96875 203.804688 76.300781 203.804688 88.117188 C 203.804688 99.933594 215.359375 105.582031 223.949219 110.621094 C 224.449219 110.902344 224.773438 111.234375 224.953125 111.5625 C 228.285156 117.351562 206.273438 115.140625 203.898438 115.140625 Z M 203.898438 115.140625 " fill-opacity="1" fill-rule="nonzero"/><path fill="#4a1e5a" d="M 90.679688 102.148438 C 90.679688 129.3125 122.328125 143.953125 141.242188 124.367188 C 149.78125 115.46875 152.203125 101.722656 147.679688 90.191406 C 135.210938 58.738281 90.679688 68.628906 90.679688 102.148438 Z M 108.441406 102.007812 C 108.441406 84.492188 132.148438 84.351562 132.148438 102.007812 C 132.148438 119.660156 108.441406 119.613281 108.441406 102.007812 Z M 108.441406 102.007812 " fill-opacity="1" fill-rule="nonzero"/><path fill="#4a1e5a" d="M 181.113281 94.472656 C 184.492188 91.410156 189.238281 90.097656 195.683594 90.328125 L 195.683594 71.964844 C 191.570312 71.964844 187.046875 71.917969 183.398438 74.085938 C 180.46875 75.824219 177.867188 80.488281 176.589844 81.710938 L 176.546875 71.964844 L 157.179688 71.964844 L 157.179688 132.417969 L 177.457031 132.417969 L 177.457031 105.347656 C 177.457031 98.664062 178.054688 97.203125 181.113281 94.472656 Z M 181.113281 94.472656 " fill-opacity="1" fill-rule="nonzero"/><g clip-path="url(#9dcd93eff8)"><path fill="#4a1e5a" d="M 84.011719 49.371094 L 64.917969 49.371094 L 64.875 96.96875 C 64.875 105.441406 65.101562 114.953125 54.324219 114.953125 C 47.746094 114.953125 42.953125 109.066406 42.953125 102.523438 C 42.953125 93.339844 49.890625 88.632812 57.980469 90.710938 L 58.074219 71.640625 C 57.113281 71.453125 56.109375 71.453125 55.105469 71.453125 C 37.191406 71.453125 24.773438 83.925781 24.773438 102.472656 C 24.773438 126.953125 52.082031 142.726562 71.90625 127.757812 C 82.820312 119.46875 84.011719 107.230469 84.011719 94.519531 Z M 84.011719 49.371094 " fill-opacity="1" fill-rule="nonzero"/></g><path fill="#4a1e5a" d="M 288.582031 54.644531 C 288.582031 65.46875 304.75 65.566406 304.75 54.644531 C 304.75 43.722656 288.582031 43.773438 288.582031 54.644531 Z M 288.582031 54.644531 " fill-opacity="1" fill-rule="nonzero"/><path fill="#4a1e5a" d="M 283.007812 111.183594 L 314.292969 93.910156 C 309.363281 80.398438 298.71875 70.746094 284.289062 70.746094 C 253.777344 70.746094 242.179688 113.070312 268.667969 129.359375 C 284.382812 138.632812 302.148438 131.195312 313.976562 118.90625 L 303.703125 106.664062 C 299.269531 112.078125 293.148438 116.175781 286.070312 116.175781 C 273.28125 116.175781 268.121094 100.261719 275.246094 90.46875 C 279.492188 84.585938 289.675781 84.070312 294.519531 89.574219 L 276.707031 99.085938 Z M 283.007812 111.183594 " fill-opacity="1" fill-rule="nonzero"/></svg>