<svg xmlns="http://www.w3.org/2000/svg" xmlns:xlink="http://www.w3.org/1999/xlink" width="500" zoomAndPan="magnify" viewBox="0 0 375 187.499995" height="250" preserveAspectRatio="xMidYMid meet" version="1.0"><defs><clipPath id="f513be356c"><path d="M 0.5 0 L 374.5 0 L 374.5 187 L 0.5 187 Z M 0.5 0 " clip-rule="nonzero"/></clipPath></defs><g clip-path="url(#f513be356c)"><path fill="#ffffff" d="M 0.5 0 L 374.5 0 L 374.5 187 L 0.5 187 Z M 0.5 0 " fill-opacity="1" fill-rule="nonzero"/><path fill="#ffffff" d="M 0.5 0 L 374.5 0 L 374.5 187 L 0.5 187 Z M 0.5 0 " fill-opacity="1" fill-rule="nonzero"/></g><path fill="#e2001a" d="M 224.742188 112.058594 L 293.792969 72.203125 L 293.792969 60.621094 L 224.742188 100.46875 L 224.742188 112.058594 " fill-opacity="1" fill-rule="evenodd"/><path fill="#00579c" d="M 224.742188 61.9375 L 293.792969 22.082031 L 293.792969 10.488281 L 224.742188 50.34375 L 224.742188 61.9375 " fill-opacity="1" fill-rule="evenodd"/><path fill="#1e1c1c" d="M 243.703125 153.117188 C 242.367188 150.886719 241.339844 148.289062 240.652344 145.3125 C 240.113281 142.984375 239.804688 140.484375 239.714844 137.988281 C 239.625 135.46875 239.75 132.953125 240.167969 130.5625 C 240.527344 128.371094 241.125 126.277344 241.980469 124.335938 C 243.164062 121.667969 244.878906 119.242188 247.132812 117.375 C 249.460938 115.433594 252.359375 114.035156 255.835938 113.359375 C 259.136719 112.699219 262.882812 112.683594 266.175781 113.339844 C 268.777344 113.871094 270.925781 114.820312 272.667969 116.082031 C 274.851562 117.671875 276.449219 119.835938 277.457031 122.34375 C 278.414062 124.734375 278.832031 127.34375 278.9375 129.957031 C 278.957031 130.734375 278.957031 131.507812 278.957031 132.285156 L 265.527344 132.285156 L 265.527344 130.996094 C 265.527344 130.300781 265.492188 129.632812 265.417969 128.964844 C 265.285156 127.613281 264.996094 126.132812 264.238281 124.960938 C 263.605469 123.984375 262.703125 123.390625 261.582031 123.15625 C 260.589844 122.9375 259.453125 122.964844 258.488281 123.246094 C 257.511719 123.535156 256.664062 124.09375 255.96875 124.824219 C 255.128906 125.71875 254.542969 126.835938 254.128906 127.972656 C 253.8125 128.847656 253.558594 129.832031 253.40625 130.878906 C 253.007812 133.367188 253.082031 136.011719 253.488281 138.492188 C 253.714844 139.863281 254.046875 141.234375 254.515625 142.542969 C 255.652344 145.789062 257.59375 148.757812 260.445312 150.761719 C 262.015625 151.851562 263.867188 152.664062 266.070312 153.105469 C 268.171875 153.523438 270.402344 153.558594 272.539062 153.332031 C 274.109375 153.179688 275.464844 152.855469 276.746094 152.386719 L 278.496094 151.746094 L 278.496094 161.125 L 277.601562 161.414062 C 274.914062 162.289062 271.988281 162.984375 268.902344 163.347656 C 267.386719 163.519531 265.851562 163.609375 264.316406 163.609375 C 262.785156 163.609375 261.25 163.492188 259.75 163.28125 C 257.222656 162.902344 254.816406 162.21875 252.621094 161.179688 C 248.867188 159.414062 245.835938 156.644531 243.703125 153.117188 Z M 226.03125 162.542969 L 224.742188 162.542969 L 224.742188 113.945312 L 237.53125 113.945312 L 237.53125 162.542969 Z M 180.707031 123.976562 L 180.707031 144.429688 C 180.707031 145.402344 180.726562 146.351562 180.796875 147.234375 C 180.898438 148.640625 181.140625 150.238281 181.890625 151.472656 C 182.496094 152.464844 183.398438 153.027344 184.5 153.277344 C 185.796875 153.574219 187.1875 153.476562 188.46875 153.242188 C 189.75 153.007812 191.015625 152.636719 192.277344 152.304688 L 192.277344 162.625 L 191.195312 162.804688 C 189.75 163.066406 188.269531 163.265625 186.792969 163.398438 C 185.328125 163.535156 183.859375 163.625 182.367188 163.609375 C 180.878906 163.589844 179.398438 163.492188 177.964844 163.230469 C 175.933594 162.867188 173.9375 162.210938 172.269531 160.972656 C 170.890625 159.964844 169.867188 158.644531 169.164062 157.078125 C 168.75 156.164062 168.46875 155.191406 168.269531 154.191406 C 167.882812 152.105469 167.902344 149.996094 167.902344 147.882812 L 167.902344 123.976562 L 159.363281 123.976562 L 159.363281 113.945312 L 167.902344 113.945312 L 167.902344 99.84375 L 180.699219 92.464844 L 180.707031 113.945312 C 186.085938 113.945312 191.484375 113.945312 196.863281 113.945312 L 196.863281 99.84375 L 209.644531 92.464844 L 209.660156 113.945312 L 222.585938 113.945312 L 222.585938 123.976562 L 209.660156 123.976562 L 209.660156 144.429688 C 209.660156 145.402344 209.679688 146.351562 209.75 147.234375 C 209.859375 148.640625 210.085938 150.238281 210.84375 151.472656 C 211.449219 152.464844 212.351562 153.027344 213.460938 153.277344 C 214.742188 153.574219 216.132812 153.476562 217.421875 153.242188 C 218.703125 153.007812 219.96875 152.636719 221.230469 152.304688 L 221.230469 162.625 L 220.15625 162.804688 C 218.703125 163.066406 217.222656 163.265625 215.734375 163.398438 C 214.292969 163.535156 212.800781 163.625 211.3125 163.609375 C 209.839844 163.589844 208.34375 163.492188 206.917969 163.230469 C 204.894531 162.867188 202.902344 162.210938 201.230469 160.972656 C 199.851562 159.964844 198.8125 158.644531 198.117188 157.078125 C 197.710938 156.164062 197.421875 155.191406 197.234375 154.191406 C 196.828125 152.105469 196.863281 149.996094 196.863281 147.882812 L 196.863281 123.976562 C 191.484375 123.976562 186.085938 123.976562 180.707031 123.976562 Z M 148.054688 127.65625 C 147.992188 127.214844 147.890625 126.765625 147.730469 126.3125 C 147.359375 125.175781 146.71875 124.167969 145.734375 123.460938 C 145.285156 123.136719 144.742188 122.867188 144.074219 122.667969 C 142.277344 122.144531 140.148438 122.207031 138.488281 123.082031 C 137.222656 123.769531 136.285156 124.886719 135.652344 126.152344 C 135.402344 126.664062 135.210938 127.179688 135.058594 127.65625 Z M 126.574219 153.574219 C 125.203125 151.285156 124.175781 148.640625 123.480469 145.664062 C 122.785156 142.695312 122.449219 139.402344 122.449219 135.820312 C 122.449219 133.601562 122.59375 131.347656 123 129.117188 C 123.351562 127.179688 123.894531 125.265625 124.699219 123.445312 C 125.644531 121.304688 126.960938 119.3125 128.667969 117.699219 C 130.628906 115.839844 133.074219 114.476562 135.996094 113.675781 C 137.945312 113.140625 140.113281 112.871094 142.484375 112.871094 C 144.210938 112.871094 145.953125 113.042969 147.628906 113.457031 C 149.742188 113.964844 151.609375 114.800781 153.21875 115.9375 C 155.148438 117.300781 156.691406 119.105469 157.820312 121.179688 C 159.183594 123.679688 159.984375 126.628906 160.292969 129.914062 C 160.417969 131.445312 160.410156 132.980469 160.410156 134.515625 L 160.410156 136.742188 L 134.570312 136.742188 C 134.734375 138.78125 135.203125 140.847656 135.933594 142.8125 C 136.574219 144.535156 137.441406 146.234375 138.542969 147.730469 C 139.644531 149.238281 140.988281 150.5625 142.578125 151.539062 C 144.714844 152.855469 147.144531 153.457031 149.652344 153.46875 C 152.324219 153.46875 155.066406 152.738281 157.558594 151.808594 L 159.308594 151.160156 L 159.308594 161.398438 L 158.425781 161.695312 C 156.050781 162.507812 153.578125 163.046875 150.90625 163.347656 C 149.253906 163.527344 147.539062 163.625 145.835938 163.617188 C 144.136719 163.609375 142.433594 163.480469 140.78125 163.191406 C 138.976562 162.859375 137.277344 162.355469 135.691406 161.667969 C 134.128906 160.972656 132.675781 160.109375 131.359375 159.070312 C 129.4375 157.546875 127.839844 155.667969 126.574219 153.574219 Z M 293.785156 140.132812 C 293.785156 136.410156 294.597656 132.84375 296.214844 129.480469 C 296.953125 128.074219 297.929688 126.78125 299.136719 125.726562 C 299.894531 125.058594 300.726562 124.617188 301.648438 124.429688 C 303.046875 124.148438 304.542969 124.195312 305.167969 125.664062 C 305.335938 126.050781 305.4375 126.484375 305.519531 126.863281 C 305.941406 129 305.96875 132.972656 305.96875 134.46875 L 305.96875 162.542969 L 318.8125 162.542969 L 318.8125 129.328125 C 318.757812 124.976562 317.929688 120.234375 314.878906 116.929688 C 312.40625 114.207031 309.355469 112.960938 306.078125 112.917969 C 300.789062 112.855469 295.273438 116.121094 293.785156 121.214844 L 293.785156 92.464844 L 280.996094 99.84375 L 280.996094 162.542969 L 293.785156 162.542969 Z M 106.746094 162.542969 L 106.746094 136.742188 L 86.566406 136.742188 L 86.566406 162.542969 L 73.21875 162.542969 L 73.21875 99.84375 L 86.566406 99.84375 L 86.566406 126.085938 L 106.746094 126.085938 L 106.746094 99.84375 L 120.09375 99.84375 L 120.09375 162.542969 L 106.746094 162.542969 " fill-opacity="1" fill-rule="evenodd"/><path fill="#fbba00" d="M 224.742188 95.359375 L 293.792969 55.503906 L 293.792969 43.902344 L 224.742188 83.75 L 224.742188 95.359375 " fill-opacity="1" fill-rule="evenodd"/><path fill="#00925b" d="M 224.742188 78.644531 L 293.792969 38.796875 L 293.792969 27.203125 L 224.742188 67.042969 L 224.742188 78.644531 " fill-opacity="1" fill-rule="evenodd"/></svg>