<svg xmlns="http://www.w3.org/2000/svg" xmlns:xlink="http://www.w3.org/1999/xlink" width="500" zoomAndPan="magnify" viewBox="0 0 375 187.499995" height="250" preserveAspectRatio="xMidYMid meet" version="1.0"><defs><clipPath id="416ddff5c1"><path d="M 27.019531 68 L 65 68 L 65 118.847656 L 27.019531 118.847656 Z M 27.019531 68 " clip-rule="nonzero"/></clipPath><clipPath id="dc6bad438a"><path d="M 142 68 L 203 68 L 203 118.847656 L 142 118.847656 Z M 142 68 " clip-rule="nonzero"/></clipPath><clipPath id="02573548c8"><path d="M 310 68 L 347.914062 68 L 347.914062 118.847656 L 310 118.847656 Z M 310 68 " clip-rule="nonzero"/></clipPath></defs><g clip-path="url(#416ddff5c1)"><path fill="#009999" d="M 28.019531 116.78125 L 28.019531 107.160156 C 33.515625 108.882812 38.375 109.746094 42.601562 109.746094 C 48.441406 109.746094 51.359375 108.207031 51.359375 105.132812 C 51.359375 103.984375 50.933594 103.023438 50.082031 102.242188 C 49.210938 101.414062 46.980469 100.269531 43.398438 98.800781 C 36.96875 96.164062 32.773438 93.914062 30.824219 92.054688 C 28.292969 89.601562 27.03125 86.503906 27.03125 82.765625 C 27.03125 77.949219 28.871094 74.277344 32.554688 71.753906 C 36.195312 69.25 40.933594 68.003906 46.78125 68.003906 C 50.003906 68.003906 54.667969 68.59375 60.765625 69.777344 L 60.765625 79.035156 C 56.226562 77.226562 52.015625 76.324219 48.121094 76.324219 C 42.640625 76.324219 39.902344 77.824219 39.902344 80.832031 C 39.902344 81.957031 40.453125 82.871094 41.558594 83.582031 C 42.476562 84.160156 45.011719 85.375 49.152344 87.234375 C 55.117188 89.871094 59.085938 92.167969 61.0625 94.121094 C 63.410156 96.433594 64.585938 99.429688 64.585938 103.105469 C 64.585938 108.382812 62.28125 112.410156 57.679688 115.183594 C 53.949219 117.433594 49.117188 118.554688 43.175781 118.554688 C 38.160156 118.554688 33.109375 117.964844 28.019531 116.78125 Z M 28.019531 116.78125 " fill-opacity="1" fill-rule="evenodd"/></g><path fill="#009999" d="M 72.292969 68.847656 L 85.945312 68.847656 L 85.945312 117.570312 L 72.292969 117.570312 Z M 72.292969 68.847656 " fill-opacity="1" fill-rule="evenodd"/><path fill="#009999" d="M 98.460938 117.570312 L 98.460938 68.847656 L 133.472656 68.847656 L 133.472656 77.660156 L 111.617188 77.660156 L 111.617188 88.664062 L 130.640625 88.664062 L 130.640625 96.699219 L 111.617188 96.699219 L 111.617188 108.261719 L 134.035156 108.261719 L 134.035156 117.570312 Z M 98.460938 117.570312 " fill-opacity="1" fill-rule="evenodd"/><g clip-path="url(#dc6bad438a)"><path fill="#009999" d="M 142.945312 117.570312 L 142.945312 68.847656 L 160.644531 68.847656 L 172.9375 99.980469 L 185.542969 68.847656 L 202.351562 68.847656 L 202.351562 117.570312 L 189.410156 117.570312 L 189.410156 83.074219 L 175.078125 118.0625 L 166.617188 118.0625 L 152.5625 83.074219 L 152.5625 117.570312 Z M 142.945312 117.570312 " fill-opacity="1" fill-rule="evenodd"/></g><path fill="#009999" d="M 214.871094 117.570312 L 214.871094 68.847656 L 249.882812 68.847656 L 249.882812 77.660156 L 228.03125 77.660156 L 228.03125 88.664062 L 247.050781 88.664062 L 247.050781 96.699219 L 228.03125 96.699219 L 228.03125 108.261719 L 250.449219 108.261719 L 250.449219 117.570312 Z M 214.871094 117.570312 " fill-opacity="1" fill-rule="evenodd"/><path fill="#009999" d="M 259.429688 117.570312 L 259.429688 68.847656 L 275.25 68.847656 L 292.035156 101.464844 L 292.035156 68.847656 L 301.648438 68.847656 L 301.648438 117.570312 L 286.277344 117.570312 L 269.046875 84.515625 L 269.046875 117.570312 Z M 259.429688 117.570312 " fill-opacity="1" fill-rule="evenodd"/><g clip-path="url(#02573548c8)"><path fill="#009999" d="M 311.339844 116.78125 L 311.339844 107.160156 C 316.785156 108.882812 321.644531 109.746094 325.921875 109.746094 C 331.761719 109.746094 334.675781 108.207031 334.675781 105.132812 C 334.675781 103.984375 334.261719 103.023438 333.441406 102.242188 C 332.566406 101.414062 330.324219 100.269531 326.71875 98.800781 C 320.308594 96.183594 316.109375 93.9375 314.140625 92.054688 C 311.613281 89.621094 310.351562 86.515625 310.351562 82.730469 C 310.351562 77.933594 312.191406 74.277344 315.875 71.753906 C 319.511719 69.25 324.257812 68.003906 330.105469 68.003906 C 333.390625 68.003906 337.652344 68.523438 342.878906 69.570312 L 344.085938 69.777344 L 344.085938 79.03125 C 339.546875 77.226562 335.320312 76.324219 331.40625 76.324219 C 325.949219 76.324219 323.226562 77.824219 323.226562 80.832031 C 323.226562 81.957031 323.773438 82.871094 324.875 83.582031 C 325.753906 84.136719 328.296875 85.351562 332.507812 87.230469 C 338.421875 89.871094 342.382812 92.167969 344.378906 94.121094 C 346.730469 96.433594 347.902344 99.429688 347.902344 103.101562 C 347.902344 108.382812 345.613281 112.410156 341.035156 115.183594 C 337.285156 117.433594 332.4375 118.554688 326.5 118.554688 C 321.476562 118.554688 316.421875 117.964844 311.339844 116.78125 Z M 311.339844 116.78125 " fill-opacity="1" fill-rule="evenodd"/></g></svg>